<?xml version="1.0" encoding="UTF-8" standalone="no"?>
<svg
   xmlns:dc="http://purl.org/dc/elements/1.1/"
   xmlns:cc="http://creativecommons.org/ns#"
   xmlns:rdf="http://www.w3.org/1999/02/22-rdf-syntax-ns#"
   xmlns:svg="http://www.w3.org/2000/svg"
   xmlns="http://www.w3.org/2000/svg"
   xmlns:xlink="http://www.w3.org/1999/xlink"
   xmlns:sodipodi="http://sodipodi.sourceforge.net/DTD/sodipodi-0.dtd"
   xmlns:inkscape="http://www.inkscape.org/namespaces/inkscape"
   width="437.31201"
   height="437.31201"
   viewBox="0 0 167.14266 167.14267"
   class="css-1j8o68f"
   version="1.1"
   id="svg921"
   sodipodi:docname="blog_logo.svg"
   inkscape:version="1.0.1 (3bc2e813f5, 2020-09-07)"
   inkscape:export-filename="C:\git\blackmonkey.github.io\images\blog_logo.png"
   inkscape:export-xdpi="65.860001"
   inkscape:export-ydpi="65.860001">
  <metadata
     id="metadata925">
    <rdf:RDF>
      <cc:Work
         rdf:about="">
        <dc:format>image/svg+xml</dc:format>
        <dc:type
           rdf:resource="http://purl.org/dc/dcmitype/StillImage" />
        <dc:title></dc:title>
      </cc:Work>
    </rdf:RDF>
  </metadata>
  <sodipodi:namedview
     pagecolor="#ffffff"
     bordercolor="#666666"
     borderopacity="1"
     objecttolerance="10"
     gridtolerance="10"
     guidetolerance="10"
     inkscape:pageopacity="0"
     inkscape:pageshadow="2"
     inkscape:window-width="1920"
     inkscape:window-height="1013"
     id="namedview923"
     showgrid="false"
     inkscape:zoom="1"
     inkscape:cx="134.74458"
     inkscape:cy="153.05937"
     inkscape:window-x="-9"
     inkscape:window-y="-9"
     inkscape:window-maximized="1"
     inkscape:current-layer="svg921" />
  <defs
     id="SvgjsDefs4549">
    <linearGradient
       inkscape:collect="always"
       id="linearGradient945">
      <stop
         style="stop-color:#474851;stop-opacity:1"
         offset="0"
         id="stop941" />
      <stop
         style="stop-color:#090b17;stop-opacity:0.99607843"
         offset="1"
         id="stop943" />
    </linearGradient>
    <linearGradient
       id="SvgjsLinearGradient4558">
      <stop
         id="SvgjsStop4559"
         stop-color="#ef4136"
         offset="0" />
      <stop
         id="SvgjsStop4560"
         stop-color="#fbb040"
         offset="1" />
    </linearGradient>
    <linearGradient
       id="SvgjsLinearGradient4561">
      <stop
         id="SvgjsStop4562"
         stop-color="#ef4136"
         offset="0" />
      <stop
         id="SvgjsStop4563"
         stop-color="#fbb040"
         offset="1" />
    </linearGradient>
    <linearGradient
       id="SvgjsLinearGradient4564">
      <stop
         id="SvgjsStop4565"
         stop-color="#ef4136"
         offset="0" />
      <stop
         id="SvgjsStop4566"
         stop-color="#fbb040"
         offset="1" />
    </linearGradient>
    <linearGradient
       inkscape:collect="always"
       xlink:href="#SvgjsLinearGradient4564"
       id="linearGradient927"
       gradientTransform="scale(0.816281,1.2250683)"
       x1="6.8603826"
       y1="0.96321159"
       x2="22.320745"
       y2="0.96321159"
       gradientUnits="userSpaceOnUse" />
    <linearGradient
       inkscape:collect="always"
       xlink:href="#SvgjsLinearGradient4564"
       id="linearGradient929"
       gradientTransform="scale(0.816281,1.2250683)"
       x1="6.8603826"
       y1="0.96321159"
       x2="22.320745"
       y2="0.96321159"
       gradientUnits="userSpaceOnUse" />
    <linearGradient
       inkscape:collect="always"
       xlink:href="#SvgjsLinearGradient4561"
       id="linearGradient931"
       gradientTransform="scale(1.229263,0.81349553)"
       x1="0.48809732"
       y1="1.3030188"
       x2="23.770339"
       y2="1.3030188"
       gradientUnits="userSpaceOnUse" />
    <linearGradient
       inkscape:collect="always"
       xlink:href="#SvgjsLinearGradient4561"
       id="linearGradient933"
       gradientTransform="scale(1.229263,0.81349553)"
       x1="0.48809732"
       y1="1.3030188"
       x2="23.770339"
       y2="1.3030188"
       gradientUnits="userSpaceOnUse" />
    <linearGradient
       inkscape:collect="always"
       xlink:href="#SvgjsLinearGradient4558"
       id="linearGradient935"
       gradientTransform="scale(1.2994324,0.76956677)"
       x1="0"
       y1="0"
       x2="79.265377"
       y2="0"
       gradientUnits="userSpaceOnUse" />
    <linearGradient
       inkscape:collect="always"
       xlink:href="#SvgjsLinearGradient4558"
       id="linearGradient937"
       gradientTransform="scale(1.2994324,0.76956677)"
       x1="0"
       y1="0"
       x2="79.265377"
       y2="0"
       gradientUnits="userSpaceOnUse" />
    <radialGradient
       inkscape:collect="always"
       xlink:href="#linearGradient945"
       id="radialGradient947"
       cx="83.571327"
       cy="83.571327"
       fx="83.571327"
       fy="83.571327"
       r="83.571327"
       gradientUnits="userSpaceOnUse" />
  </defs>
  <rect
     style="fill:url(#radialGradient947);fill-opacity:1;stroke-width:1.44455"
     id="rect939"
     width="167.14265"
     height="167.14265"
     x="0"
     y="0"
     rx="5.7330689"
     ry="5.7330689" />
  <g
     id="SvgjsG4550"
     featurekey="symbolGroupContainer"
     fill="url(#SvgjsLinearGradient4558)"
     style="fill:url(#linearGradient937)"
     transform="translate(32.071553,25.071284)">
    <rect
       width="103"
       height="61"
       rx="10"
       ry="10"
       id="rect909"
       x="0"
       y="0"
       style="fill:url(#linearGradient935)" />
  </g>
  <g
     id="SvgjsG4551"
     featurekey="symbolFeature-0"
     transform="matrix(0.6468483,0,0,0.6468483,51.228999,28.479216)"
     fill="#0c0c0c">
    <path
       d="m 98.535,33.739 c 0,0 0.332,-7.743 0.048,-8.03 -0.283,-0.286 -26.75,0.572 -26.75,0.572 L 50,26.568 28.166,26.282 c 0,0 -26.464,-0.858 -26.749,-0.572 -0.284,0.287 0.05,8.03 0.05,8.03 0,0 -0.458,-0.61 1.375,2.517 1.83,3.125 1.983,17.848 10.146,20.365 8.162,2.52 17.163,2.673 22.806,-0.381 0,0 7.323,-4.196 10.069,-14.416 0,0 0.754,-4.899 4.137,-4.956 3.383,0.057 4.141,4.956 4.141,4.956 2.745,10.219 10.069,14.415 10.069,14.415 5.643,3.054 14.645,2.9 22.805,0.381 8.165,-2.515 8.315,-17.237 10.148,-20.365 1.826,-3.127 1.372,-2.517 1.372,-2.517 z M 34.648,53.952 C 32.131,55.477 27.782,56.697 17.637,55.169 7.492,53.648 7.34,41.288 8.331,34.958 c 0.993,-6.332 15.791,-5.493 15.791,-5.493 16.553,0.385 17.238,5.569 17.238,5.569 2.367,9.764 -4.193,17.394 -6.712,18.918 z m 47.713,1.217 c -10.145,1.528 -14.495,0.309 -17.01,-1.217 -2.517,-1.524 -9.078,-9.154 -6.712,-18.917 0,0 0.686,-5.186 17.235,-5.568 0,0 14.802,-0.839 15.794,5.493 0.989,6.33 0.839,18.688 -9.307,20.209 z M 94.337,27.721 c 0,0 -12.215,0.343 -23.844,0.508 C 60.488,28.371 50.908,28.358 50,28.331 49.091,28.358 39.515,28.373 29.509,28.229 17.878,28.061 5.661,27.721 5.661,27.721 5.053,26.568 5.967,26.568 5.967,26.568 8.132,26.923 48.298,27.28 50,27.294 c 1.704,-0.014 41.865,-0.372 44.032,-0.727 0,0.001 0.914,0.001 0.305,1.154 z"
       id="path912" />
  </g>
  <g
     id="SvgjsG4552"
     featurekey="nameLeftFeature-0"
     transform="matrix(1.9007391,0,0,1.9007391,33.931109,104.0565)"
     fill="url(#SvgjsLinearGradient4561)"
     style="fill:url(#linearGradient933)">
    <path
       d="M 5.38,3.36 V 17.7 Q 5.38,20 3.14,20 H 4.02 2.84 Q 1.64,20 1.12,19.39 0.6,18.78 0.6,17.7 V 3.36 q 0,-1.1 0.52,-1.7 0.52,-0.6 1.72,-0.6 H 3.82 3.14 q 2.24,0 2.24,2.3 z M 3.72,3.58 Q 3.72,3.18 3.56,2.95 3.4,2.72 2.98,2.72 2.56,2.72 2.41,2.95 2.26,3.18 2.26,3.58 v 13.9 q 0,0.4 0.15,0.63 0.15,0.23 0.57,0.23 0.42,0 0.58,-0.23 0.16,-0.23 0.16,-0.63 z m 4.76,4.64 q 0.24,0.6 1.04,1.7 0.8,1.12 1.16,1.74 0.36,0.62 0.52,1.29 0.16,0.67 0.16,1.71 v 3.04 q 0,2.3 -2.24,2.3 H 8.82 Q 7.62,20 7.1,19.39 6.58,18.78 6.58,17.7 v -4.66 h 1.66 v 4.44 q 0,0.4 0.15,0.63 0.15,0.23 0.57,0.23 0.42,0 0.58,-0.23 Q 9.7,17.88 9.7,17.48 V 14.42 Q 9.7,13.5 9.45,12.92 9.2,12.34 8.4,11.22 7.6,10.12 7.24,9.48 6.88,8.84 6.73,8.16 6.58,7.48 6.58,6.44 V 3.36 q 0,-1.1 0.52,-1.7 0.52,-0.6 1.72,-0.6 h 0.3 q 2.24,0 2.24,2.3 v 4.7 H 9.7 V 3.58 Q 9.7,3.18 9.54,2.95 9.38,2.72 8.96,2.72 8.54,2.72 8.39,2.95 8.24,3.18 8.24,3.58 v 3.08 q 0,0.96 0.24,1.56 z M 17.34,13 v 4.7 q 0,2.3 -2.24,2.3 H 14.8 Q 13.6,20 13.08,19.39 12.56,18.78 12.56,17.7 V 3.36 q 0,-1.1 0.52,-1.7 0.52,-0.6 1.72,-0.6 h 0.3 q 2.24,0 2.24,2.3 v 4.7 H 15.68 V 3.58 q 0,-0.4 -0.16,-0.63 -0.16,-0.23 -0.58,-0.23 -0.42,0 -0.57,0.23 -0.15,0.23 -0.15,0.63 v 13.9 q 0,0.4 0.15,0.63 0.15,0.23 0.57,0.23 0.42,0 0.58,-0.23 0.16,-0.23 0.16,-0.63 V 13 Z m 1.12,7 0.98,-18.68 h 2.82 L 23.24,20 H 21.7 l -0.2,-3.9 -0.28,0.4 q -0.52,0.72 -0.76,1.16 -0.24,0.44 -0.32,0.85 -0.08,0.41 -0.12,1.11 L 20,20 Z m 2.64,-6.48 q 0.18,-0.5 0.18,-1.42 L 20.84,3.82 20.26,14.96 q 0.66,-0.94 0.84,-1.44 z M 29.22,20 h -1.64 l -0.02,-5.72 q 0,-0.72 -0.14,-1.21 -0.14,-0.49 -0.54,-1.09 -0.46,0.7 -0.62,1.22 -0.16,0.52 -0.16,1.34 V 20 H 24.44 V 1.32 h 2.54 q 2.24,0 2.24,2.32 v 2.88 q 0,1.32 -0.26,2.1 -0.26,0.78 -1.04,1.9 0.76,1.08 1.03,1.85 0.27,0.77 0.27,2.03 z M 27.56,3.84 q 0,-0.4 -0.15,-0.63 Q 27.26,2.98 26.84,2.98 H 26.1 v 7.2 q 0.06,-0.06 0.09,-0.12 0.03,-0.06 0.07,-0.1 0.8,-1.1 1.05,-1.69 0.25,-0.59 0.25,-1.51 z"
       id="path915"
       style="fill:url(#linearGradient931)" />
  </g>
  <g
     id="SvgjsG4553"
     featurekey="nameRightFeature-0"
     transform="matrix(1.9007391,0,0,1.9007391,98.427414,103.82841)"
     fill="url(#SvgjsLinearGradient4564)"
     style="fill:url(#linearGradient929)">
    <path
       d="m 9.18,13.1 h 0.74 v 4.94 c 0,1.22 -0.48,2.08 -2.02,2.08 H 7.62 C 6.12,20.12 5.6,19.26 5.6,17.84 V 3.06 C 5.6,2.04 6.1,1.18 7.62,1.18 H 7.9 c 1.52,0 2.02,0.86 2.02,2.08 V 8.18 H 9.18 V 3.58 C 9.18,2.7 8.96,1.94 7.76,1.94 c -1.2,0 -1.4,0.74 -1.4,1.64 v 14.14 c 0,0.88 0.2,1.64 1.4,1.64 1.22,0 1.42,-0.76 1.42,-1.64 z m 3.1,6.9 H 11.52 L 13.04,1.32 h 1.3 L 15.86,20 H 15.1 l -0.42,-5.2 c -0.18,0.26 -0.44,0.6 -0.76,1.08 -0.76,1.1 -1.46,1.9 -1.58,3.5 z m 0.28,-3.44 c 0.26,-0.42 0.6,-0.9 1,-1.46 1,-1.44 0.92,-1.34 0.92,-2.58 0,-0.14 -0.7,-8.8 -0.76,-9.7 H 13.68 Z M 18.22,20 H 17.48 V 1.32 h 0.74 z"
       id="path918"
       style="fill:url(#linearGradient927)" />
  </g>
</svg>
